# xmcd
#
# Track frame offsets: 
#        150
#        21619
#        45074
#        63146
#        83068
#        101657
#        125496
#        147002
#        165286
#        182411
#        198878
#        214105
#        230245
#        249037
#        270397
#        284292
#        306726
#
# Disc length: 4322 seconds
#
# Revision: 0
# Processed by: cddbd v1.5.2PL0 Copyright (c) Steve Scherf et al.
# Submitted via: ExactAudioCopy v1.0b3
#
DISCID=e210e011
DTITLE=邓紫棋 - 巅峰新天后 B
DYEAR=2014
DGENRE=Pop
TTITLE0=你把我灌醉
TTITLE1=我要我们在一起
TTITLE2=存在
TTITLE3=泡沫
TTITLE4=喜欢你
TTITLE5=情人
TTITLE6=If I Were A Boy
TTITLE7=Mascara
TTITLE8=A.i.n.y爱你
TTITLE9=是否
TTITLE10=偶尔
TTITLE11=我不懂爱
TTITLE12=我的秘密
TTITLE13=睡公主
TTITLE14=Oh Boy
TTITLE15=美好的旧时光
TTITLE16=写不完的温柔
EXTD=
EXTT0=
EXTT1=
EXTT2=
EXTT3=
EXTT4=
EXTT5=
EXTT6=
EXTT7=
EXTT8=
EXTT9=
EXTT10=
EXTT11=
EXTT12=
EXTT13=
EXTT14=
EXTT15=
EXTT16=
PLAYORDER=
